:SAMPLES-PER-SECOND 30
:FULLY-SPECIFIED
:DEGREES
233
root  -5.1039 40.8077 -0.177641 -40.7983 -89.7831 40.5342
RightUpLeg  8.7659 -2.24592 -1.99962
RightLeg  -3.46059 -19.7489 0.99585
RightFoot  -2.82209 -0.315299 3.96819
RightToes  -3.10096e-008 1.75238e-005 3.56266e-009
Spine  -13.7327 -0.537827 -8.16199
Spine1  14.4129 -2.08138 9.01061
HEad  -12.2715 1.47509 6.74094
LeftShoulder1  2.65567 -4.05565 -29.0829
LeftArm  -25.0847 22.1044 -50.6398
LeftForeArm  15.0648 -32.8027 -6.39664
LeftHand  -0.381207 -3.96918 4.99758
RightShoulder  3.05803 5.37483 28.5019
RightArm  -11.334 -31.4298 45.3953
RightForeArm  19.4654 45.136 9.8983
RightHand  -0.534239 8.26157 -4.9069
LeftUpLeg  6.56552 1.65049 2.35628
LeftLeg  -1.87153 10.8363 -0.610975
LeftFoot  -3.19752 0.204696 -2.69343
LeftToes  4.7633e-008 1.48299e-008 1.30754e-009
234
root  -5.11905 40.8105 -0.154715 -0.263306 -90 0
RightUpLeg  8.82634 -2.23806 -1.99939
RightLeg  -3.59332 -19.5877 1.03935
RightFoot  -2.70461 -0.311053 3.86079
RightToes  -3.10096e-008 1.75238e-005 3.56266e-009
Spine  -13.6583 -0.588826 -8.18823
Spine1  14.267 -2.16657 9.12667
HEad  -12.3027 1.91727 6.71032
LeftShoulder1  2.88216 -4.62792 -29.4119
LeftArm  -25.4119 21.9972 -50.0113
LeftForeArm  14.6905 -33.5441 -6.61043
LeftHand  -0.367661 -3.52409 5.04412
RightShoulder  3.0418 5.32599 28.5092
RightArm  -11.413 -31.3875 45.3163
RightForeArm  19.4832 44.9729 9.83853
RightHand  -0.559964 8.54864 -5.04192
LeftUpLeg  6.68171 1.65537 2.35787
LeftLeg  -2.02088 10.9928 -0.636454
LeftFoot  -3.14852 0.203545 -2.67437
LeftToes  4.7633e-008 1.48299e-008 1.30754e-009
235
root  -5.13355 40.8153 -0.135066 -149.927 -89.6984 149.721
RightUpLeg  8.75099 -2.24346 -2.06455
RightLeg  -3.61125 -19.315 0.999092
RightFoot  -2.61916 -0.307588 3.76791
RightToes  -3.10096e-008 1.75238e-005 3.56266e-009
Spine  -13.6497 -0.65086 -8.36653
Spine1  14.1367 -2.2703 9.37877
HEad  -12.4441 2.67592 6.54306
LeftShoulder1  2.9102 -4.69509 -29.4631
LeftArm  -25.3091 22.1921 -49.6163
LeftForeArm  14.8071 -34.2838 -6.79967
LeftHand  -0.372937 -3.86814 4.94125
RightShoulder  3.06546 5.36588 28.624
RightArm  -11.7044 -31.7343 45.2311
RightForeArm  18.812 45.9212 10.2411
RightHand  -0.567246 7.35578 -5.50848
LeftUpLeg  6.75973 1.67099 2.30843
LeftLeg  -2.20975 11.2679 -0.749639
LeftFoot  -3.04681 0.20136 -2.63887
LeftToes  4.7633e-008 1.48299e-008 1.30754e-009
236
root  -5.14017 40.8181 -0.114289 -174.406 -89.3431 174.176
RightUpLeg  8.72074 -2.20692 -2.08834
RightLeg  -3.58021 -18.9936 0.927018
RightFoot  -2.5597 -0.323706 3.98757
RightToes  -3.10096e-008 1.75238e-005 3.56266e-009
Spine  -13.8889 -0.736479 -8.54659
Spine1  14.7013 -2.47643 9.72558
HEad  -12.7743 2.87572 6.59865
LeftShoulder1  2.85503 -4.5311 -29.5008
LeftArm  -25.1485 22.4166 -49.4844
LeftForeArm  14.4205 -35.1374 -7.0524
LeftHand  -0.405466 -4.11042 5.23545
RightShoulder  3.03833 5.26193 28.7275
RightArm  -11.6076 -31.1119 45.1463
RightForeArm  18.2563 45.779 10.2276
RightHand  -0.567433 7.38516 -5.50626
LeftUpLeg  6.91084 1.70365 2.29927
LeftLeg  -2.34729 11.5811 -0.824527
LeftFoot  -2.97334 0.194569 -2.53144
LeftToes  4.7633e-008 1.48299e-008 1.30754e-009
237
root  -5.13211 40.8191 -0.0892647 -177.845 -89.0164 177.56
RightUpLeg  8.70128 -2.19788 -2.11346
RightLeg  -3.53325 -18.6862 0.878297
RightFoot  -2.48517 -0.319624 3.90603
RightToes  -3.10096e-008 1.75238e-005 3.56266e-009
Spine  -14.0048 -0.771209 -8.65562
Spine1  15.2474 -2.64317 10.0425
HEad  -13.3361 3.25484 6.45182
LeftShoulder1  2.85186 -4.49185 -29.6372
LeftArm  -25.5523 22.5564 -49.4384
LeftForeArm  14.3867 -35.6209 -7.18762
LeftHand  -0.392661 -4.60775 4.84842
RightShoulder  2.98074 5.09318 28.7388
RightArm  -11.5124 -30.8528 45.0716
RightForeArm  17.8987 46.1864 10.4141
RightHand  -0.561519 7.7897 -5.30197
LeftUpLeg  6.98561 1.72596 2.27367
LeftLeg  -2.32457 11.9323 -0.848359
LeftFoot  -2.96435 0.184711 -2.37615
LeftToes  4.7633e-008 1.48299e-008 1.30754e-009
238
root  -5.11911 40.8207 -0.0706953 -179.609 -88.7519 179.24
RightUpLeg  8.72506 -2.16179 -2.11731
RightLeg  -3.51959 -18.4671 0.813666
RightFoot  -2.42343 -0.322347 3.93466
RightToes  -3.10096e-008 1.75238e-005 3.56266e-009
Spine  -14.1099 -0.84822 -8.7988
Spine1  15.6608 -2.82357 10.3101
HEad  -13.7465 3.05294 6.51567
LeftShoulder1  2.83159 -4.47298 -29.4646
LeftArm  -26.1453 23.0766 -49.6676
LeftForeArm  13.9418 -36.1585 -7.36489
LeftHand  -0.399854 -4.53854 4.96519
RightShoulder  3.07881 5.31317 28.9927
RightArm  -11.3859 -31.2148 44.7251
RightForeArm  17.4761 47.0715 10.794
RightHand  -0.596588 7.58927 -5.68272
LeftUpLeg  6.99756 1.75637 2.25301
LeftLeg  -2.1591 12.2179 -0.841242
LeftFoot  -2.9646 0.180045 -2.29455
LeftToes  4.7633e-008 1.48299e-008 1.30754e-009
239
root  -5.1026 40.8267 -0.0619725 -178.783 -88.5375 178.3
RightUpLeg  8.80957 -2.18735 -2.17549
RightLeg  -3.56146 -18.2306 0.797471
RightFoot  -2.35802 -0.323129 3.937
RightToes  -3.10096e-008 1.75238e-005 3.56266e-009
Spine  -14.017 -0.857392 -9.0924
Spine1  15.8931 -2.95168 10.7313
HEad  -14.0868 2.66353 6.62398
LeftShoulder1  2.83836 -4.48889 -29.4784
LeftArm  -26.5762 23.659 -49.8239
LeftForeArm  13.3221 -36.7028 -7.55697
LeftHand  -0.366451 -4.20243 4.70863
RightShoulder  3.07404 5.28295 29.0599
RightArm  -10.9167 -31.0183 44.6434
RightForeArm  16.8414 46.9336 10.7868
RightHand  -0.663388 7.7816 -6.19883
LeftUpLeg  7.13578 1.77113 2.2177
LeftLeg  -2.20256 12.4229 -0.885542
LeftFoot  -2.86387 0.181542 -2.30864
LeftToes  4.7633e-008 1.48299e-008 1.30754e-009
240
root  -5.07263 40.8316 -0.0583308 -179.964 -88.2996 179.512
RightUpLeg  8.69131 -2.11544 -2.13912
RightLeg  -3.56355 -18.0941 0.753577
RightFoot  -2.2694 -0.324954 3.9587
RightToes  -3.10096e-008 1.75238e-005 3.56266e-009
Spine  -13.9872 -0.860403 -9.14714
Spine1  15.9674 -2.9954 10.8364
HEad  -14.4949 2.79721 6.65333
LeftShoulder1  2.78307 -4.38186 -29.2554
LeftArm  -26.9889 24.1253 -50.1814
LeftForeArm  12.0486 -36.8078 -7.66539
LeftHand  -0.307101 -3.90641 4.10789
RightShoulder  3.04755 5.18225 29.1639
RightArm  -10.7587 -31.1319 44.7364
RightForeArm  16.3844 47.2257 10.9394
RightHand  -0.640907 7.53664 -6.10225
LeftUpLeg  7.04974 1.82974 2.25719
LeftLeg  -2.14222 12.5986 -0.941
LeftFoot  -2.84321 0.17732 -2.23573
LeftToes  4.7633e-008 1.48299e-008 1.30754e-009
241
root  -5.04381 40.8341 -0.0567962 -179.971 -88.217 179.483
RightUpLeg  8.66311 -2.16402 -2.17801
RightLeg  -3.53787 -17.9517 0.773946
RightFoot  -2.24147 -0.323572 3.93312
RightToes  -3.10096e-008 1.75238e-005 3.56266e-009
Spine  -14.0747 -0.890819 -9.23233
Spine1  16.307 -3.0897 11.0069
HEad  -15.2028 3.13846 6.71934
LeftShoulder1  2.82352 -4.49055 -29.2813
LeftArm  -27.7394 24.2487 -50.4016
LeftForeArm  10.0977 -36.4775 -7.6893
LeftHand  -0.284959 -3.8473 3.83682
RightShoulder  3.00149 5.04067 29.2083
RightArm  -10.6824 -31.0286 44.9833
RightForeArm  16.6856 47.1035 10.8673
RightHand  -0.662892 7.9314 -6.13357
LeftUpLeg  7.09533 1.84242 2.26135
LeftLeg  -2.22701 12.6875 -0.998672
LeftFoot  -2.80489 0.17552 -2.20175
LeftToes  4.7633e-008 1.48299e-008 1.30754e-009
242
root  -4.99026 40.8344 -0.05635 -178.964 -88.3221 178.377
RightUpLeg  8.62394 -2.2281 -2.22614
RightLeg  -3.37079 -17.9738 0.753529
RightFoot  -2.30339 -0.326074 3.96958
RightToes  -3.10096e-008 1.75238e-005 3.56266e-009
Spine  -13.8999 -1.05513 -9.59869
Spine1  16.4929 -3.36031 11.3901
HEad  -15.3148 3.34738 6.62698
LeftShoulder1  2.88181 -4.62198 -29.4318
LeftArm  -28.9921 24.5589 -50.7094
LeftForeArm  7.9655 -36.5703 -7.84595
LeftHand  -0.197952 -3.66711 2.79782
RightShoulder  3.04313 5.12893 29.3339
RightArm  -10.1236 -31.1067 44.8096
RightForeArm  16.6068 47.4913 11.0321
RightHand  -0.647947 8.22539 -5.88685
LeftUpLeg  7.02737 1.82037 2.2293
LeftLeg  -2.07598 12.5987 -0.944668
LeftFoot  -2.79444 0.170266 -2.11456
LeftToes  4.7633e-008 1.48299e-008 1.30754e-009
